<?xml version="1.0" encoding="utf-8"?>
<svg xmlns="http://www.w3.org/2000/svg" xmlns:xlink="http://www.w3.org/1999/xlink" style="margin: auto; background: none; display: block; shape-rendering: auto;" width="200px" height="200px" viewBox="0 0 100 100" preserveAspectRatio="xMidYMid">
<g transform="translate(50 50)">
<g>
<animateTransform attributeName="transform" type="rotate" values="0;45" keyTimes="0;1" dur="0.9615384615384615s" repeatCount="indefinite"></animateTransform><path d="M7.599342076785332 -6.5 L26.599342076785334 -6.5 L26.599342076785334 6.5 L7.599342076785332 6.5 A10 10 0 0 1 9.969740392763729 0.7773522373386094 L9.969740392763729 0.7773522373386094 L23.40476923530813 14.212381079883013 L14.212381079883013 23.40476923530813 L0.7773522373386099 9.969740392763729 A10 10 0 0 1 6.500000000000002 7.599342076785332 L6.500000000000002 7.599342076785332 L6.500000000000004 26.599342076785334 L-6.499999999999997 26.599342076785334 L-6.5 7.599342076785332 A10 10 0 0 1 -0.7773522373386087 9.969740392763729 L-0.7773522373386087 9.969740392763729 L-14.212381079883007 23.404769235308137 L-23.40476923530813 14.212381079883016 L-9.969740392763729 0.7773522373386106 A10 10 0 0 1 -7.59934207678533 6.500000000000002 L-7.59934207678533 6.500000000000002 L-26.59934207678533 6.500000000000005 L-26.599342076785334 -6.499999999999996 L-7.599342076785333 -6.499999999999999 A10 10 0 0 1 -9.969740392763729 -0.7773522373386081 L-9.969740392763729 -0.7773522373386081 L-23.40476923530813 -14.212381079883011 L-14.212381079883007 -23.40476923530813 L-0.7773522373386067 -9.969740392763729 A10 10 0 0 1 -6.499999999999998 -7.599342076785333 L-6.499999999999998 -7.599342076785333 L-6.500000000000002 -26.599342076785334 L6.499999999999992 -26.599342076785334 L6.499999999999996 -7.5993420767853355 A10 10 0 0 1 0.7773522373386031 -9.969740392763729 L0.7773522373386031 -9.969740392763729 L14.212381079883002 -23.404769235308137 L23.40476923530813 -14.212381079883015 L9.969740392763729 -0.7773522373386073 A10 10 0 0 1 7.599342076785333 -6.499999999999999 M0 -22A22 22 0 1 0 0 22 A22 22 0 1 0 0 -22" fill="#85a2b6"></path></g></g>
<!-- [ldio] generated by https://loading.io/ --></svg>